<svg t="1718010695309" class="icon" viewBox="0 0 1024 1024" version="1.1" xmlns="http://www.w3.org/2000/svg" p-id="6917" width="20" height="20">
<path d="M842.346 756.133c0-2.996-0.5-5.966-1.475-8.798-12.143-35.185-43.705-46.122-69.064-54.906-6.229-2.16-12.123-4.201-17.529-6.486-11.932-5.038-24.357-10.378-36.896-15.765-1.105-0.475-2.232-0.955-3.344-1.436-18.57-7.987-37.607-16.16-55.475-23.477a27.635 27.635 0 0 0-3.16-1.073l-19.479-5.321c-2.332-3.22-5.123-8.343-7.652-13.36 5.393-6.921 10.371-14.171 15.014-21.652 24.893-40.097 38.729-87.502 38.729-135.283 0-93.278-23.115-149.699-55.922-182.81-32.807-33.11-75.307-42.902-114.086-42.902h-0.008c-70.289 0-152.807 32.162-167.656 177.041-1.541 14.987-2.35 31.18-2.35 48.671 0 3.542 0.078 7.085 0.223 10.621 0.33 7.686 1.041 15.344 2.063 22.963 1.328 9.896 3.205 19.716 5.668 29.375 1.641 6.454 3.557 12.828 5.684 19.13 0.125 0.376 0.23 0.752 0.361 1.126 0.355 1.028 0.758 2.042 1.121 3.069 9.113 25.49 22.125 49.486 38.621 70.651-0.244 0.48-0.494 0.955-0.738 1.436-0.447 0.862-0.889 1.731-1.344 2.581-0.203 0.376-0.4 0.737-0.605 1.106a144.164 144.164 0 0 1-1.625 2.91c-0.35 0.606-0.699 1.206-1.041 1.766-0.105 0.184-0.219 0.369-0.33 0.553a56.804 56.804 0 0 1-1.705 2.602l0.02 0.007c-0.092 0.124-0.191 0.289-0.275 0.408l-19.479 5.313a27.535 27.535 0 0 0-3.162 1.073c-18.926 7.758-39.207 16.483-58.832 24.912-12.537 5.387-24.957 10.727-36.889 15.765-5.414 2.285-11.301 4.326-17.529 6.486-25.367 8.784-56.922 19.722-69.064 54.906a27.015 27.015 0 0 0-1.475 8.798c0 7.672-0.291 19.446-0.607 32.465-0.5 20.946-1.066 44.68-0.736 61.116 0.289 14.685 12.275 26.438 26.959 26.438h609.451c14.691 0 26.676-11.754 26.965-26.438 0.322-16.437-0.244-40.17-0.744-61.116-0.318-13.019-0.603-24.793-0.603-32.465z m-234.408 40.019H260.895l0.133-5.611 0.02-0.773c0.133-5.464 0.258-10.626 0.361-15.399 5.053-2.218 12.131-4.669 16.998-6.354 7.176-2.488 14.596-5.062 22.441-8.372 11.719-4.949 24.037-10.242 35.951-15.36l1.389-0.597 2.188-0.939c17.549-7.538 35.662-15.318 52.432-22.23l16.336-4.456a80.002 80.002 0 0 0 45.424-32.675 73.14 73.14 0 0 0 1.02-1.539 150.766 150.766 0 0 0 2.377-3.7c0.162-0.262 0.324-0.524 0.484-0.788 0.193-0.32 0.389-0.643 0.58-0.965a207.546 207.546 0 0 0 4.111-7.196c0.305-0.552 0.604-1.098 0.908-1.662l0.115-0.214c0.527-0.983 1.045-1.981 1.561-2.981l0.287-0.557c0.102-0.193 0.199-0.387 0.299-0.58l0.111-0.217c0.211-0.405 0.42-0.812 0.627-1.219 14.063-27.661 10.861-60.959-8.215-85.434-11.119-14.267-19.988-30.525-26.363-48.329-0.256-0.72-0.52-1.438-0.785-2.154-0.047-0.144-0.094-0.288-0.143-0.433l-0.111-0.335c-1.557-4.611-2.885-9.071-3.949-13.255l-0.014-0.057c-1.654-6.488-2.967-13.304-3.898-20.231-0.729-5.438-1.207-10.709-1.422-15.669a178.315 178.315 0 0 1-0.154-7.294c0-14.403 0.648-28.026 1.934-40.514 3.098-30.215 11.645-70.293 34.775-89.636 12.348-10.325 30.279-15.561 53.297-15.561h0.008c12.83 0 24.191 1.634 33.768 4.857 9.357 3.149 17.041 7.844 23.49 14.352 8.658 8.739 15.768 21.399 21.129 37.631 7.711 23.338 11.621 53.239 11.621 88.872 0 32.298-9.48 65.358-26.703 93.1-3.33 5.366-6.742 10.301-10.145 14.666-19.01 24.396-22.252 57.565-8.33 85.183 5.127 10.17 9.666 17.879 14.285 24.26a80 80 0 0 0 43.721 30.26l16.361 4.471c15.717 6.472 32.504 13.667 51.111 21.67 0.795 0.344 1.596 0.688 2.395 1.029l1.094 0.469 0.334 0.144c12.273 5.272 24.965 10.726 36.996 15.806 7.813 3.302 15.205 5.865 22.355 8.345l0.135 0.046c4.846 1.68 11.918 4.129 16.971 6.347 0.105 4.991 0.236 10.404 0.375 16.139l0.135 5.646H607.938z" fill="#040000" p-id="6918"></path><path d="M252.934 649.6H80.787c0.076-3.152 0.15-6.192 0.217-9.102 3.784-1.472 8.133-2.977 11.337-4.086 6.377-2.212 13.605-4.719 21.011-7.843 10.904-4.604 22.359-9.527 33.437-14.288l0.901-0.387 2.059-0.884c15.955-6.854 32.418-13.924 47.649-20.208l14.619-3.987a79.997 79.997 0 0 0 45.384-32.616c0.349-0.514 0.691-1.03 1.027-1.55a147.116 147.116 0 0 0 2.261-3.521l0.472-0.768c0.188-0.311 0.376-0.623 0.562-0.936 0.62-1.028 1.154-1.948 1.606-2.732a204.933 204.933 0 0 0 2.283-4.074c0.276-0.5 0.546-0.993 0.822-1.504l0.177-0.329c0.479-0.896 0.95-1.803 1.42-2.713l0.27-0.521 0.292-0.568 0.113-0.219c0.191-0.37 0.383-0.741 0.572-1.114 14.087-27.668 10.893-60.988-8.194-85.477-9.774-12.54-17.579-26.846-23.2-42.524-0.235-0.663-0.477-1.323-0.721-1.982l-0.073-0.221-0.146-0.434c-1.377-4.082-2.55-8.017-3.485-11.695l-0.015-0.058c-1.457-5.714-2.613-11.726-3.435-17.841-0.645-4.813-1.067-9.469-1.257-13.84a158.18 158.18 0 0 1-0.135-6.39c0-13.014 0.585-25.302 1.742-36.553 2.723-26.556 10.074-61.646 29.646-78.012 10.14-8.479 25.207-12.779 44.784-12.779h0.007c32.399 0 44.124 11.832 47.974 15.718 4.724 4.767 8.891 10.983 12.479 18.495a178.884 178.884 0 0 1 16.474-15.69c14.98-12.527 31.717-22.371 50.104-29.505-6.6-11.59-14.085-21.389-22.228-29.607-30.139-30.416-69.18-39.411-104.803-39.411h-0.007c-64.569 0-140.371 29.545-154.013 162.633-1.416 13.768-2.159 28.643-2.159 44.71 0 3.254 0.072 6.509 0.205 9.757 0.303 7.06 0.957 14.095 1.895 21.094 1.221 9.091 2.944 18.111 5.207 26.985 1.507 5.929 3.268 11.784 5.222 17.573 0.114 0.346 0.211 0.691 0.332 1.035 0.326 0.944 0.695 1.875 1.028 2.819 8.373 23.416 20.325 45.459 35.479 64.902-0.225 0.441-0.454 0.877-0.679 1.319-0.411 0.792-0.816 1.59-1.234 2.371-0.187 0.345-0.368 0.677-0.556 1.016-0.503 0.919-0.998 1.815-1.494 2.673a79.12 79.12 0 0 1-0.955 1.622c-0.098 0.168-0.201 0.339-0.304 0.508a50.801 50.801 0 0 1-1.567 2.39l0.02 0.006c-0.085 0.114-0.176 0.266-0.254 0.375l-17.894 4.881c-0.993 0.272-1.96 0.599-2.904 0.985-17.386 7.127-36.017 15.143-54.044 22.885-11.517 4.949-22.926 9.854-33.887 14.482-4.974 2.099-10.381 3.974-16.104 5.958-23.303 8.069-52.289 18.117-63.444 50.438a24.805 24.805 0 0 0-1.354 8.082c0 7.047-0.267 17.863-0.558 29.822-0.459 19.242-0.979 41.044-0.677 56.143 0.267 13.49 11.276 24.287 24.766 24.287h122.191c19.572-49.863 64.737-65.509 92.055-74.969 5.049-1.746 9.844-3.411 13.826-5.026zM1023.224 649.17c-0.29-11.959-0.551-22.775-0.551-29.822 0-2.753-0.46-5.48-1.354-8.082-11.154-32.321-40.148-42.369-63.444-50.438-5.723-1.984-11.137-3.859-16.103-5.958-10.961-4.628-22.377-9.533-33.895-14.482-1.016-0.436-2.051-0.877-3.072-1.318-17.059-7.337-34.547-14.845-50.959-21.566a25.22 25.22 0 0 0-2.903-0.985l-17.895-4.889c-2.142-2.958-4.705-7.664-7.028-12.273 4.953-6.358 9.527-13.018 13.792-19.89 22.866-36.834 35.576-80.381 35.576-124.274 0-85.688-21.233-137.517-51.37-167.933-30.139-30.416-69.18-39.411-104.803-39.411h-0.007c-45.292 0-96.106 14.542-127.122 69.154 23.771 9.208 44.798 22.825 62.421 40.61a179.018 179.018 0 0 1 4.236 4.427c4.075-8.527 9.206-15.998 15.681-21.413 10.139-8.479 25.207-12.779 44.784-12.779h0.007c32.399 0 44.123 11.832 47.974 15.718 18.185 18.353 28.199 57.996 28.199 111.625 0 28.473-8.361 57.623-23.552 82.092-2.934 4.728-5.937 9.071-8.926 12.907-19.005 24.396-22.248 57.56-8.328 85.175 4.871 9.664 9.214 17.03 13.668 23.181a80 80 0 0 0 43.714 30.255l14.645 4c14.324 5.905 29.633 12.467 46.588 19.76l2.263 0.972 0.871 0.373c11.356 4.88 23.099 9.926 34.298 14.654 7.37 3.114 14.572 5.612 20.927 7.815l0.136 0.047c3.185 1.104 7.524 2.606 11.305 4.076 0.067 2.953 0.14 6.003 0.216 9.103H771.069c3.949 1.604 8.708 3.256 13.728 4.996l0.116 0.041c27.31 9.459 72.486 25.114 92.039 74.963h122.184c13.496 0 24.505-10.797 24.771-24.287 0.296-15.1-0.224-36.902-0.683-56.144z" fill="#040000" p-id="6919"></path></svg><svg t="1718010695309" class="icon" viewBox="0 0 1024 1024" version="1.1" xmlns="http://www.w3.org/2000/svg" p-id="6917" width="20" height="20"><path d="M842.346 756.133c0-2.996-0.5-5.966-1.475-8.798-12.143-35.185-43.705-46.122-69.064-54.906-6.229-2.16-12.123-4.201-17.529-6.486-11.932-5.038-24.357-10.378-36.896-15.765-1.105-0.475-2.232-0.955-3.344-1.436-18.57-7.987-37.607-16.16-55.475-23.477a27.635 27.635 0 0 0-3.16-1.073l-19.479-5.321c-2.332-3.22-5.123-8.343-7.652-13.36 5.393-6.921 10.371-14.171 15.014-21.652 24.893-40.097 38.729-87.502 38.729-135.283 0-93.278-23.115-149.699-55.922-182.81-32.807-33.11-75.307-42.902-114.086-42.902h-0.008c-70.289 0-152.807 32.162-167.656 177.041-1.541 14.987-2.35 31.18-2.35 48.671 0 3.542 0.078 7.085 0.223 10.621 0.33 7.686 1.041 15.344 2.063 22.963 1.328 9.896 3.205 19.716 5.668 29.375 1.641 6.454 3.557 12.828 5.684 19.13 0.125 0.376 0.23 0.752 0.361 1.126 0.355 1.028 0.758 2.042 1.121 3.069 9.113 25.49 22.125 49.486 38.621 70.651-0.244 0.48-0.494 0.955-0.738 1.436-0.447 0.862-0.889 1.731-1.344 2.581-0.203 0.376-0.4 0.737-0.605 1.106a144.164 144.164 0 0 1-1.625 2.91c-0.35 0.606-0.699 1.206-1.041 1.766-0.105 0.184-0.219 0.369-0.33 0.553a56.804 56.804 0 0 1-1.705 2.602l0.02 0.007c-0.092 0.124-0.191 0.289-0.275 0.408l-19.479 5.313a27.535 27.535 0 0 0-3.162 1.073c-18.926 7.758-39.207 16.483-58.832 24.912-12.537 5.387-24.957 10.727-36.889 15.765-5.414 2.285-11.301 4.326-17.529 6.486-25.367 8.784-56.922 19.722-69.064 54.906a27.015 27.015 0 0 0-1.475 8.798c0 7.672-0.291 19.446-0.607 32.465-0.5 20.946-1.066 44.68-0.736 61.116 0.289 14.685 12.275 26.438 26.959 26.438h609.451c14.691 0 26.676-11.754 26.965-26.438 0.322-16.437-0.244-40.17-0.744-61.116-0.318-13.019-0.603-24.793-0.603-32.465z m-234.408 40.019H260.895l0.133-5.611 0.02-0.773c0.133-5.464 0.258-10.626 0.361-15.399 5.053-2.218 12.131-4.669 16.998-6.354 7.176-2.488 14.596-5.062 22.441-8.372 11.719-4.949 24.037-10.242 35.951-15.36l1.389-0.597 2.188-0.939c17.549-7.538 35.662-15.318 52.432-22.23l16.336-4.456a80.002 80.002 0 0 0 45.424-32.675 73.14 73.14 0 0 0 1.02-1.539 150.766 150.766 0 0 0 2.377-3.7c0.162-0.262 0.324-0.524 0.484-0.788 0.193-0.32 0.389-0.643 0.58-0.965a207.546 207.546 0 0 0 4.111-7.196c0.305-0.552 0.604-1.098 0.908-1.662l0.115-0.214c0.527-0.983 1.045-1.981 1.561-2.981l0.287-0.557c0.102-0.193 0.199-0.387 0.299-0.58l0.111-0.217c0.211-0.405 0.42-0.812 0.627-1.219 14.063-27.661 10.861-60.959-8.215-85.434-11.119-14.267-19.988-30.525-26.363-48.329-0.256-0.72-0.52-1.438-0.785-2.154-0.047-0.144-0.094-0.288-0.143-0.433l-0.111-0.335c-1.557-4.611-2.885-9.071-3.949-13.255l-0.014-0.057c-1.654-6.488-2.967-13.304-3.898-20.231-0.729-5.438-1.207-10.709-1.422-15.669a178.315 178.315 0 0 1-0.154-7.294c0-14.403 0.648-28.026 1.934-40.514 3.098-30.215 11.645-70.293 34.775-89.636 12.348-10.325 30.279-15.561 53.297-15.561h0.008c12.83 0 24.191 1.634 33.768 4.857 9.357 3.149 17.041 7.844 23.49 14.352 8.658 8.739 15.768 21.399 21.129 37.631 7.711 23.338 11.621 53.239 11.621 88.872 0 32.298-9.48 65.358-26.703 93.1-3.33 5.366-6.742 10.301-10.145 14.666-19.01 24.396-22.252 57.565-8.33 85.183 5.127 10.17 9.666 17.879 14.285 24.26a80 80 0 0 0 43.721 30.26l16.361 4.471c15.717 6.472 32.504 13.667 51.111 21.67 0.795 0.344 1.596 0.688 2.395 1.029l1.094 0.469 0.334 0.144c12.273 5.272 24.965 10.726 36.996 15.806 7.813 3.302 15.205 5.865 22.355 8.345l0.135 0.046c4.846 1.68 11.918 4.129 16.971 6.347 0.105 4.991 0.236 10.404 0.375 16.139l0.135 5.646H607.938z" fill="#040000" p-id="6918"></path><path d="M252.934 649.6H80.787c0.076-3.152 0.15-6.192 0.217-9.102 3.784-1.472 8.133-2.977 11.337-4.086 6.377-2.212 13.605-4.719 21.011-7.843 10.904-4.604 22.359-9.527 33.437-14.288l0.901-0.387 2.059-0.884c15.955-6.854 32.418-13.924 47.649-20.208l14.619-3.987a79.997 79.997 0 0 0 45.384-32.616c0.349-0.514 0.691-1.03 1.027-1.55a147.116 147.116 0 0 0 2.261-3.521l0.472-0.768c0.188-0.311 0.376-0.623 0.562-0.936 0.62-1.028 1.154-1.948 1.606-2.732a204.933 204.933 0 0 0 2.283-4.074c0.276-0.5 0.546-0.993 0.822-1.504l0.177-0.329c0.479-0.896 0.95-1.803 1.42-2.713l0.27-0.521 0.292-0.568 0.113-0.219c0.191-0.37 0.383-0.741 0.572-1.114 14.087-27.668 10.893-60.988-8.194-85.477-9.774-12.54-17.579-26.846-23.2-42.524-0.235-0.663-0.477-1.323-0.721-1.982l-0.073-0.221-0.146-0.434c-1.377-4.082-2.55-8.017-3.485-11.695l-0.015-0.058c-1.457-5.714-2.613-11.726-3.435-17.841-0.645-4.813-1.067-9.469-1.257-13.84a158.18 158.18 0 0 1-0.135-6.39c0-13.014 0.585-25.302 1.742-36.553 2.723-26.556 10.074-61.646 29.646-78.012 10.14-8.479 25.207-12.779 44.784-12.779h0.007c32.399 0 44.124 11.832 47.974 15.718 4.724 4.767 8.891 10.983 12.479 18.495a178.884 178.884 0 0 1 16.474-15.69c14.98-12.527 31.717-22.371 50.104-29.505-6.6-11.59-14.085-21.389-22.228-29.607-30.139-30.416-69.18-39.411-104.803-39.411h-0.007c-64.569 0-140.371 29.545-154.013 162.633-1.416 13.768-2.159 28.643-2.159 44.71 0 3.254 0.072 6.509 0.205 9.757 0.303 7.06 0.957 14.095 1.895 21.094 1.221 9.091 2.944 18.111 5.207 26.985 1.507 5.929 3.268 11.784 5.222 17.573 0.114 0.346 0.211 0.691 0.332 1.035 0.326 0.944 0.695 1.875 1.028 2.819 8.373 23.416 20.325 45.459 35.479 64.902-0.225 0.441-0.454 0.877-0.679 1.319-0.411 0.792-0.816 1.59-1.234 2.371-0.187 0.345-0.368 0.677-0.556 1.016-0.503 0.919-0.998 1.815-1.494 2.673a79.12 79.12 0 0 1-0.955 1.622c-0.098 0.168-0.201 0.339-0.304 0.508a50.801 50.801 0 0 1-1.567 2.39l0.02 0.006c-0.085 0.114-0.176 0.266-0.254 0.375l-17.894 4.881c-0.993 0.272-1.96 0.599-2.904 0.985-17.386 7.127-36.017 15.143-54.044 22.885-11.517 4.949-22.926 9.854-33.887 14.482-4.974 2.099-10.381 3.974-16.104 5.958-23.303 8.069-52.289 18.117-63.444 50.438a24.805 24.805 0 0 0-1.354 8.082c0 7.047-0.267 17.863-0.558 29.822-0.459 19.242-0.979 41.044-0.677 56.143 0.267 13.49 11.276 24.287 24.766 24.287h122.191c19.572-49.863 64.737-65.509 92.055-74.969 5.049-1.746 9.844-3.411 13.826-5.026zM1023.224 649.17c-0.29-11.959-0.551-22.775-0.551-29.822 0-2.753-0.46-5.48-1.354-8.082-11.154-32.321-40.148-42.369-63.444-50.438-5.723-1.984-11.137-3.859-16.103-5.958-10.961-4.628-22.377-9.533-33.895-14.482-1.016-0.436-2.051-0.877-3.072-1.318-17.059-7.337-34.547-14.845-50.959-21.566a25.22 25.22 0 0 0-2.903-0.985l-17.895-4.889c-2.142-2.958-4.705-7.664-7.028-12.273 4.953-6.358 9.527-13.018 13.792-19.89 22.866-36.834 35.576-80.381 35.576-124.274 0-85.688-21.233-137.517-51.37-167.933-30.139-30.416-69.18-39.411-104.803-39.411h-0.007c-45.292 0-96.106 14.542-127.122 69.154 23.771 9.208 44.798 22.825 62.421 40.61a179.018 179.018 0 0 1 4.236 4.427c4.075-8.527 9.206-15.998 15.681-21.413 10.139-8.479 25.207-12.779 44.784-12.779h0.007c32.399 0 44.123 11.832 47.974 15.718 18.185 18.353 28.199 57.996 28.199 111.625 0 28.473-8.361 57.623-23.552 82.092-2.934 4.728-5.937 9.071-8.926 12.907-19.005 24.396-22.248 57.56-8.328 85.175 4.871 9.664 9.214 17.03 13.668 23.181a80 80 0 0 0 43.714 30.255l14.645 4c14.324 5.905 29.633 12.467 46.588 19.76l2.263 0.972 0.871 0.373c11.356 4.88 23.099 9.926 34.298 14.654 7.37 3.114 14.572 5.612 20.927 7.815l0.136 0.047c3.185 1.104 7.524 2.606 11.305 4.076 0.067 2.953 0.14 6.003 0.216 9.103H771.069c3.949 1.604 8.708 3.256 13.728 4.996l0.116 0.041c27.31 9.459 72.486 25.114 92.039 74.963h122.184c13.496 0 24.505-10.797 24.771-24.287 0.296-15.1-0.224-36.902-0.683-56.144z" fill="#040000" p-id="6919"></path></svg>